<svg id="Capa_1" enable-background="new 0 0 512 512" height="512" viewBox="0 0 512 512" width="512" xmlns="http://www.w3.org/2000/svg"><g><g><path d="m491.19 282.46c-3.053 0-5.946-1.822-7.163-4.826l-55.28-136.354-55.279 136.354c-1.602 3.955-6.105 5.865-10.062 4.258-3.955-1.603-5.861-6.109-4.258-10.062l62.439-154.016c1.182-2.916 4.014-4.824 7.16-4.824s5.978 1.907 7.16 4.824l62.44 154.016c1.604 3.954-.303 8.46-4.258 10.062-.95.385-1.933.568-2.899.568z" fill="#4073c8"/></g><g><path d="m20.81 282.46c-.967 0-1.949-.182-2.899-.568-3.955-1.603-5.861-6.109-4.258-10.062l62.44-154.016c1.182-2.916 4.014-4.824 7.16-4.824s5.978 1.907 7.16 4.824l62.439 154.016c1.604 3.954-.303 8.46-4.258 10.062-3.957 1.603-8.46-.304-10.062-4.258l-55.279-136.354-55.28 136.354c-1.217 3.004-4.11 4.826-7.163 4.826z" fill="#4073c8"/></g><path d="m470.374 360.17h-83.252c-17.242 0-31.22-13.977-31.22-31.22v-31.22h145.691v31.22c.001 17.242-13.977 31.22-31.219 31.22z" fill="#f6e266"/><path d="m477.659 297.731v31.22c0 17.242-13.977 31.22-31.22 31.22h23.935c17.242 0 31.22-13.977 31.22-31.22v-31.22z" fill="#f1d333"/><path d="m235.187 95.74h41.626v333.008h-41.626z" fill="#f6e266"/><path d="m235.187 405.854h41.626v22.894h-41.626z" fill="#f1d333"/><path d="m162.341 470.374v-31.324c0-5.69 4.612-10.302 10.302-10.302h166.713c5.69 0 10.302 4.612 10.302 10.302v31.324z" fill="#e49542"/><path d="m245.593 366.309h20.813v187.317h-20.813z" fill="#e28424" transform="matrix(0 1 -1 0 715.968 203.968)"/><path d="m131.122 501.698v-21.022c0-5.69 4.612-10.302 10.302-10.302h229.152c5.69 0 10.302 4.612 10.302 10.302v21.022c0 5.69-4.612 10.302-10.302 10.302h-229.152c-5.69 0-10.302-4.612-10.302-10.302z" fill="#f6e266"/><g><path d="m479.74 104.065c0 9.196-7.455 16.65-16.65 16.65h-103.025c-4.416 0-8.651-1.754-11.773-4.877l-20.099-20.098h-144.386l-20.099 20.099c-3.122 3.123-7.358 4.877-11.773 4.877h-103.024c-9.196 0-16.65-7.455-16.65-16.65 0-9.196 7.455-16.65 16.65-16.65h96.128l20.099-20.099c3.122-3.123 7.358-4.877 11.773-4.877h158.179c4.416 0 8.651 1.754 11.773 4.877l20.099 20.099h96.128c9.195-.001 16.65 7.453 16.65 16.649z" fill="#e49542"/></g><circle cx="256" cy="31.22" fill="#f6e266" r="31.22"/><path d="m270.134 3.403c2.148 4.233 3.362 9.02 3.362 14.093 0 17.242-13.977 31.22-31.219 31.22-5.073 0-9.86-1.215-14.093-3.362 5.158 10.133 15.666 17.085 27.816 17.085 17.242 0 31.22-13.977 31.22-31.22 0-12.149-6.952-22.658-17.086-27.816z" fill="#f1d333"/><path d="m501.698 297.731h-145.9c-5.69 0-10.302-4.612-10.302-10.302v-12.697c0-5.69 4.612-10.302 10.302-10.302h145.9c5.69 0 10.302 4.612 10.302 10.302v12.697c0 5.689-4.612 10.302-10.302 10.302z" fill="#e49542"/><path d="m501.698 297.731h-14.674v-33.301h14.674c5.69 0 10.302 4.612 10.302 10.302v12.697c0 5.689-4.612 10.302-10.302 10.302z" fill="#e28424"/><path d="m124.878 360.17h-83.252c-17.242 0-31.22-13.977-31.22-31.22v-31.22h145.691v31.22c.001 17.242-13.977 31.22-31.219 31.22z" fill="#f6e266"/><path d="m132.163 297.731v31.22c0 17.242-13.977 31.22-31.22 31.22h23.935c17.242 0 31.22-13.977 31.22-31.22v-31.22z" fill="#f1d333"/><path d="m156.202 297.731h-145.9c-5.69 0-10.302-4.613-10.302-10.302v-12.697c0-5.69 4.612-10.302 10.302-10.302h145.9c5.69 0 10.302 4.612 10.302 10.302v12.697c0 5.689-4.612 10.302-10.302 10.302z" fill="#e49542"/><path d="m156.202 297.731h-14.674v-33.301h14.674c5.69 0 10.302 4.612 10.302 10.302v12.697c0 5.689-4.612 10.302-10.302 10.302z" fill="#e28424"/></g></svg>