<svg width="60" height="60" viewBox="0 0 60 60" fill="none" xmlns="http://www.w3.org/2000/svg">
<path d="M59.1211 31.2519H57.3456L50.9555 15.4898H53.557C55.0859 15.4898 56.3297 14.246 56.3297 12.7172C56.3297 11.1877 55.0859 9.94336 53.557 9.94336H42.9864L40.9576 7.91449C40.4341 7.39113 39.7377 7.10285 38.9966 7.10285H33.5306C34.0948 6.35941 34.4304 5.4334 34.4304 4.43027C34.4303 1.98738 32.4429 0 30 0C27.5571 0 25.5697 1.98738 25.5697 4.43027C25.5697 5.4334 25.9054 6.3593 26.4695 7.10285H21.0035C20.2624 7.10285 19.5659 7.39113 19.0425 7.91449L17.0138 9.94336H14.802C14.3164 9.94336 13.923 10.3368 13.923 10.8223C13.923 11.3078 14.3164 11.7012 14.802 11.7012H17.3777C17.6108 11.7012 17.8343 11.6086 17.9993 11.4438L20.2856 9.1575C20.477 8.96601 20.732 8.86066 21.0036 8.86066H38.9965C39.2681 8.86066 39.5231 8.96601 39.7145 9.1575L42.0008 11.4438C42.1657 11.6086 42.3892 11.7012 42.6224 11.7012H53.5571C54.1167 11.7012 54.572 12.157 54.572 12.7172C54.572 13.2768 54.1167 13.732 53.5571 13.732H41.8384C41.567 13.732 41.3123 13.6266 41.1205 13.4341L38.8342 11.1477C38.6693 10.9828 38.4458 10.8902 38.2126 10.8902H21.7875C21.5544 10.8902 21.3309 10.9828 21.1659 11.1477L18.8787 13.4351C18.6878 13.6266 18.4331 13.732 18.1617 13.732H6.44297C5.8834 13.732 5.42812 13.2768 5.42812 12.7172C5.42812 12.4457 5.53348 12.1907 5.72484 11.9993C5.91715 11.807 6.17215 11.7012 6.44297 11.7012H10.7004C11.1859 11.7012 11.5793 11.3078 11.5793 10.8223C11.5793 10.3368 11.1859 9.94336 10.7004 9.94336H6.44297C5.70281 9.94336 5.00637 10.232 4.48195 10.7563C3.95859 11.2798 3.67031 11.9761 3.67031 12.7172C3.67031 14.246 4.91414 15.4898 6.44297 15.4898H9.04453L2.65441 31.2519H0.878906C0.393398 31.2519 0 31.6453 0 32.1308V35.9189C0 36.4044 0.393398 36.7978 0.878906 36.7978H1.18383V39.4704C1.18383 41.9133 3.17121 43.9007 5.6141 43.9007H15.0844C17.5273 43.9007 19.5146 41.9133 19.5146 39.4704V36.7978H19.8196C20.3051 36.7978 20.6985 36.4044 20.6985 35.9189V32.1308C20.6985 31.6453 20.3051 31.2519 19.8196 31.2519H18.0441L11.6539 15.4898H18.1618C18.9039 15.4898 19.6005 15.2009 20.1227 14.6769L22.1515 12.648H26.7536V48.7719H19.3459C18.8604 48.7719 18.467 49.1653 18.467 49.6508V53.5066H15.7945C15.309 53.5066 14.9156 53.9 14.9156 54.3855V59.1211C14.9156 59.6066 15.309 60 15.7945 60H44.2055C44.691 60 45.0844 59.6066 45.0844 59.1211V54.3855C45.0844 53.9 44.691 53.5066 44.2055 53.5066H41.533V49.6508C41.533 49.1653 41.1396 48.7719 40.6541 48.7719H33.2461V21.7969C33.2461 21.3114 32.8527 20.918 32.3672 20.918C31.8817 20.918 31.4883 21.3114 31.4883 21.7969V48.7719H28.5114V12.648H31.4883V17.6953C31.4883 18.1808 31.8817 18.5742 32.3672 18.5742C32.8527 18.5742 33.2461 18.1808 33.2461 17.6953V12.648H37.8484L39.8763 14.6761C40.3995 15.201 41.0961 15.4898 41.8382 15.4898H48.3461L41.9561 31.2519H40.1805C39.695 31.2519 39.3016 31.6453 39.3016 32.1308V35.9189C39.3016 36.4044 39.695 36.7978 40.1805 36.7978H40.4855V39.4704C40.4855 41.9133 42.4729 43.9007 44.9157 43.9007H54.386C56.8289 43.9007 58.8163 41.9133 58.8163 39.4704V36.7978H59.1212C59.6067 36.7978 60.0001 36.4044 60.0001 35.9189V32.1308C60 31.6453 59.6066 31.2519 59.1211 31.2519ZM30 1.75781C31.4735 1.75781 32.6725 2.95664 32.6725 4.43027C32.6725 5.90391 31.4735 7.10262 30 7.10262C28.5265 7.10262 27.3275 5.90379 27.3275 4.43016C27.3275 2.95652 28.5265 1.75781 30 1.75781ZM17.7567 39.4703C17.7567 40.9438 16.5579 42.1427 15.0843 42.1427H5.61398C4.14047 42.1427 2.94152 40.9439 2.94152 39.4703V36.7977H17.7567V39.4703ZM18.9405 35.04H1.75781V33.0097H18.9405V35.04ZM4.55109 31.2519L10.3492 16.9501L16.1471 31.2519H4.55109ZM39.7752 53.5066H27.1793C26.6938 53.5066 26.3004 53.9 26.3004 54.3855C26.3004 54.8711 26.6938 55.2645 27.1793 55.2645H43.3266V58.2422H16.6734V55.2645H23.0776C23.5631 55.2645 23.9565 54.8711 23.9565 54.3855C23.9565 53.9 23.5631 53.5066 23.0776 53.5066H20.2247V50.5297H39.7751V53.5066H39.7752ZM49.6508 16.9501L55.4489 31.2519H43.8527L49.6508 16.9501ZM41.0595 33.0097H58.2422V35.04H41.0595V33.0097ZM57.0584 39.4703C57.0584 40.9438 55.8595 42.1427 54.3859 42.1427H44.9156C43.4421 42.1427 42.2432 40.9439 42.2432 39.4703V36.7977H57.0584V39.4703Z" fill="#7C7C7C"/>
</svg>
