<svg width="20" height="20" viewBox="0 0 20 20" fill="none" xmlns="http://www.w3.org/2000/svg">
<path d="M11.9141 10C11.9141 11.0571 11.0571 11.9141 10 11.9141C8.94287 11.9141 8.08594 11.0571 8.08594 10C8.08594 8.94287 8.94287 8.08594 10 8.08594C11.0571 8.08594 11.9141 8.94287 11.9141 10Z" fill="white"/>
<path d="M14.4764 6.61346C14.3844 6.36414 14.2376 6.13846 14.0469 5.95322C13.8617 5.76248 13.6361 5.61569 13.3867 5.52368C13.1843 5.4451 12.8804 5.35156 12.3205 5.32608C11.7149 5.29846 11.5333 5.29251 10.0001 5.29251C8.46677 5.29251 8.28519 5.29831 7.67972 5.32593C7.11987 5.35156 6.81577 5.4451 6.61359 5.52368C6.36411 5.61569 6.13843 5.76248 5.95334 5.95322C5.7626 6.13846 5.61581 6.36398 5.52365 6.61346C5.44507 6.8158 5.35153 7.1199 5.32605 7.67975C5.29843 8.28522 5.29248 8.4668 5.29248 10.0002C5.29248 11.5334 5.29843 11.7149 5.32605 12.3206C5.35153 12.8804 5.44507 13.1844 5.52365 13.3867C5.61581 13.6362 5.76245 13.8617 5.95319 14.0469C6.13843 14.2377 6.36395 14.3845 6.61343 14.4765C6.81577 14.5552 7.11987 14.6487 7.67972 14.6742C8.28519 14.7018 8.46661 14.7076 9.99997 14.7076C11.5335 14.7076 11.7151 14.7018 12.3204 14.6742C12.8802 14.6487 13.1843 14.5552 13.3867 14.4765C13.8875 14.2833 14.2833 13.8875 14.4764 13.3867C14.555 13.1844 14.6486 12.8804 14.6742 12.3206C14.7018 11.7149 14.7076 11.5334 14.7076 10.0002C14.7076 8.4668 14.7018 8.28522 14.6742 7.67975C14.6487 7.1199 14.5552 6.8158 14.4764 6.61346ZM10.0001 12.9486C8.37155 12.9486 7.05136 11.6286 7.05136 10C7.05136 8.37143 8.37155 7.05139 10.0001 7.05139C11.6285 7.05139 12.9487 8.37143 12.9487 10C12.9487 11.6286 11.6285 12.9486 10.0001 12.9486ZM13.0653 7.6239C12.6848 7.6239 12.3762 7.31537 12.3762 6.93481C12.3762 6.55426 12.6848 6.24573 13.0653 6.24573C13.4459 6.24573 13.7544 6.55426 13.7544 6.93481C13.7542 7.31537 13.4459 7.6239 13.0653 7.6239Z" fill="white"/>
<path d="M10 0C4.478 0 0 4.478 0 10C0 15.522 4.478 20 10 20C15.522 20 20 15.522 20 10C20 4.478 15.522 0 10 0ZM15.7076 12.3674C15.6798 12.9787 15.5826 13.396 15.4407 13.7613C15.1424 14.5326 14.5326 15.1424 13.7613 15.4407C13.3961 15.5826 12.9787 15.6796 12.3676 15.7076C11.7552 15.7355 11.5596 15.7422 10.0002 15.7422C8.44055 15.7422 8.24509 15.7355 7.6326 15.7076C7.02148 15.6796 6.604 15.5826 6.23886 15.4407C5.85556 15.2965 5.50858 15.0705 5.22171 14.7783C4.92966 14.4916 4.70367 14.1444 4.55948 13.7613C4.41757 13.3961 4.32037 12.9787 4.2926 12.3676C4.26437 11.7551 4.25781 11.5594 4.25781 10C4.25781 8.44055 4.26437 8.24493 4.29245 7.6326C4.32022 7.02133 4.41727 6.604 4.55917 6.23871C4.70337 5.85556 4.9295 5.50842 5.22171 5.22171C5.50842 4.9295 5.85556 4.70352 6.23871 4.55933C6.604 4.41742 7.02133 4.32037 7.6326 4.29245C8.24493 4.26453 8.44055 4.25781 10 4.25781C11.5594 4.25781 11.7551 4.26453 12.3674 4.2926C12.9787 4.32037 13.396 4.41742 13.7613 4.55917C14.1444 4.70337 14.4916 4.9295 14.7784 5.22171C15.0705 5.50858 15.2966 5.85556 15.4407 6.23871C15.5827 6.604 15.6798 7.02133 15.7077 7.6326C15.7356 8.24493 15.7422 8.44055 15.7422 10C15.7422 11.5594 15.7356 11.7551 15.7076 12.3674Z" fill="white"/>
</svg>
