<svg width="45" height="45" viewBox="0 0 45 45" fill="none" xmlns="http://www.w3.org/2000/svg">
<g clip-path="url(#clip0)">
<path d="M30.2577 22.4242H18.8335C18.2381 22.4242 17.7164 22.0259 17.5594 21.4517C17.4025 20.8774 17.6491 20.2691 18.1616 19.9661C23.1391 17.025 25.7246 13.5941 26.0656 9.47744C26.1845 8.04878 27.457 6.9076 28.9015 6.9265C30.3754 6.95006 31.7562 7.54086 32.7904 8.59027C33.8254 9.64065 34.3958 11.0316 34.3964 12.5068C34.3964 12.5069 34.3964 12.5071 34.3964 12.5073V12.9511C34.3964 16.5546 33.329 18.8522 31.3597 21.8315C31.1149 22.2016 30.7012 22.4242 30.2577 22.4242Z" fill="#FFC380"/>
<path d="M44.2584 23.9213C44.2584 21.6393 42.4019 19.7827 40.1198 19.7827H18.8335C18.597 19.7827 18.3648 19.8462 18.1613 19.9666C16.6671 20.8501 15.1584 21.5774 13.9461 22.1619C13.5233 22.3657 13.1239 22.5583 12.7606 22.7399C12.3132 22.9637 12.0305 23.4209 12.0305 23.9213V40.8279C12.0305 41.3282 12.3132 41.7855 12.7606 42.0093C18.0976 44.6774 22.534 45 27.7073 45C28.5084 45 29.3277 44.9923 30.1703 44.9844C31.1021 44.9756 32.0655 44.9665 33.0755 44.9665H37.2511C39.5331 44.9665 41.3897 43.1099 41.3897 40.8279C41.3897 40.0606 41.1799 39.3415 40.8144 38.7247C42.0035 37.9968 42.7986 36.6858 42.7986 35.1923C42.7986 34.425 42.5888 33.7059 42.2233 33.0892C43.4124 32.3613 44.2075 31.0502 44.2075 29.5568C44.2075 28.4834 43.7967 27.5043 43.1243 26.7682C43.8566 25.9964 44.2584 24.9898 44.2584 23.9213Z" fill="#FFCF99"/>
<path d="M41.511 12.4029H38.6933C37.9639 12.4029 37.3724 11.8115 37.3724 11.0821C37.3724 10.3526 37.9639 9.76123 38.6933 9.76123H41.511C42.2404 9.76123 42.8318 10.3526 42.8318 11.0821C42.8318 11.8115 42.2405 12.4029 41.511 12.4029Z" fill="#991111"/>
<path d="M21.7867 12.4029H18.9689C18.2395 12.4029 17.6481 11.8115 17.6481 11.0821C17.6481 10.3526 18.2395 9.76123 18.9689 9.76123H21.7867C22.5161 9.76123 23.1075 10.3526 23.1075 11.0821C23.1075 11.8115 22.5162 12.4029 21.7867 12.4029Z" fill="#991111"/>
<path d="M26.0147 5.08227C25.5581 5.08227 25.1142 4.8454 24.8696 4.42168L23.4608 1.9814C23.096 1.34973 23.3125 0.541839 23.9441 0.177181C24.5758 -0.187565 25.3837 0.0289097 25.7484 0.66058L27.1573 3.10086C27.522 3.73253 27.3055 4.54042 26.6739 4.90508C26.4659 5.02523 26.2387 5.08227 26.0147 5.08227Z" fill="#991111"/>
<path d="M34.4654 5.08235C34.2413 5.08235 34.0142 5.02531 33.8062 4.90516C33.1745 4.54041 32.9581 3.73261 33.3228 3.10094L34.7317 0.660658C35.0964 0.0289878 35.9042 -0.187663 36.5359 0.177259C37.1676 0.542005 37.3841 1.34981 37.0193 1.98148L35.6104 4.42176C35.366 4.84548 34.9219 5.08235 34.4654 5.08235Z" fill="#991111"/>
<path d="M9.01872 38.0269V44.9832H6.37708V38.0269C6.37708 37.2978 6.96884 36.7061 7.6979 36.7061C8.42695 36.7061 9.01872 37.2978 9.01872 38.0269Z" fill="#B32727"/>
<path d="M41.511 12.4029H38.6933C37.9639 12.4029 37.3724 11.8115 37.3724 11.0821C37.3724 10.3526 37.9639 9.76123 38.6933 9.76123H41.511C42.2404 9.76123 42.8318 10.3526 42.8318 11.0821C42.8318 11.8115 42.2405 12.4029 41.511 12.4029Z" fill="#991111"/>
<path d="M21.7867 12.4029H18.9689C18.2395 12.4029 17.6481 11.8115 17.6481 11.0821C17.6481 10.3526 18.2395 9.76123 18.9689 9.76123H21.7867C22.5161 9.76123 23.1075 10.3526 23.1075 11.0821C23.1075 11.8115 22.5162 12.4029 21.7867 12.4029Z" fill="#991111"/>
<path d="M26.0147 5.08227C25.5581 5.08227 25.1142 4.8454 24.8696 4.42168L23.4608 1.9814C23.096 1.34973 23.3125 0.541839 23.9441 0.177181C24.5758 -0.187565 25.3837 0.0289097 25.7484 0.66058L27.1573 3.10086C27.522 3.73253 27.3055 4.54042 26.6739 4.90508C26.4659 5.02523 26.2387 5.08227 26.0147 5.08227Z" fill="#991111"/>
<path d="M34.4654 5.08235C34.2413 5.08235 34.0142 5.02531 33.8062 4.90516C33.1745 4.54041 32.9581 3.73261 33.3228 3.10094L34.7317 0.660658C35.0964 0.0289878 35.9042 -0.187663 36.5359 0.177259C37.1676 0.542005 37.3841 1.34981 37.0193 1.98148L35.6104 4.42176C35.366 4.84548 34.9219 5.08235 34.4654 5.08235Z" fill="#991111"/>
<path d="M9.01872 38.0269V44.9832H6.37708V38.0269C6.37708 37.2978 6.96884 36.7061 7.6979 36.7061C8.42695 36.7061 9.01872 37.2978 9.01872 38.0269Z" fill="#B32727"/>
<path d="M13.3334 19.7827H2.0624C1.33334 19.7827 0.741577 20.3745 0.741577 21.1035V43.6455C0.741577 44.3755 1.33334 44.9664 2.0624 44.9831H10.5156C12.1349 44.9664 13.5394 44.0321 14.2184 42.6743C14.4975 42.1186 14.6542 41.4908 14.6542 40.8278V21.1035C14.6542 20.3744 14.0625 19.7827 13.3334 19.7827Z" fill="#800606"/>
<path d="M9.01872 37.9385V44.9829H6.37708V37.9385C6.37708 37.2094 6.96884 36.6177 7.6979 36.6177C8.42695 36.6177 9.01872 37.2094 9.01872 37.9385Z" fill="#B32727"/>
</g>
<defs>
<clipPath id="clip0">
<rect width="45" height="45" fill="white"/>
</clipPath>
</defs>
</svg>
