<svg width="60" height="66" viewBox="0 0 60 66" fill="none" xmlns="http://www.w3.org/2000/svg">
<path d="M56.0424 32.6026C57.9347 31.2327 59.1643 29.0747 59.1643 26.644C59.1643 22.5106 55.6253 19.1476 51.2758 19.1476C46.9262 19.1476 43.3872 22.5106 43.3872 26.644C43.3872 28.8835 44.4314 30.8916 46.0752 32.2662H40.8372L34.2236 25.9815C33.8381 25.6151 33.2149 25.6151 32.8293 25.9815L28.885 29.7297C28.4995 30.096 28.4995 30.6883 28.885 31.0546L37.7597 39.4881C37.9441 39.6642 38.1945 39.7626 38.4568 39.7626H46.3454V46.322H29.452L34.3469 39.3456L32.706 38.3065L27.0825 46.322H24.6518V41.6367C24.6518 41.1185 24.211 40.6997 23.6657 40.6997H15.7772V36.9515C15.7772 34.9762 14.4795 33.2904 12.6552 32.6026C14.5475 31.2327 15.7772 29.0747 15.7772 26.644C15.7772 22.5106 12.2381 19.1476 7.88858 19.1476C3.53901 19.1476 0 22.5106 0 26.644C0 29.0747 1.22963 31.2327 3.1219 32.6026C1.29767 33.2904 0 34.9762 0 36.9515V50.0701C0 52.6536 2.21176 54.7554 4.93036 54.7554V66H6.90251V54.7554H13.805V65.0629C13.805 65.5811 14.2458 66 14.7911 66H21.6936C22.2389 66 22.6797 65.5811 22.6797 65.0629V51.0072C22.6797 49.953 22.3119 48.9794 21.6916 48.1961H28.5961V64.1259H24.6518V66H34.5125V64.1259H30.5682V48.1961H37.4964C36.8702 48.9813 36.4847 49.9483 36.4847 51.0072V65.0629C36.4847 65.5811 36.9254 66 37.4707 66H44.3732C44.9185 66 45.3593 65.5811 45.3593 65.0629V54.7554H52.2618V66H54.234V54.7554C56.9526 54.7554 59.1643 52.6536 59.1643 50.0701V36.9515C59.1643 34.9762 57.8667 33.2904 56.0424 32.6026ZM1.97214 26.644C1.97214 23.5433 4.62566 21.0217 7.88858 21.0217C11.1515 21.0217 13.805 23.5433 13.805 26.644C13.805 29.7447 11.1515 32.2662 7.88858 32.2662C4.62566 32.2662 1.97214 29.7447 1.97214 26.644ZM22.6797 46.322H9.86072V38.8256H7.88858V47.259C7.88858 47.7772 8.32935 48.1961 8.87465 48.1961H17.7493C19.3803 48.1961 20.7075 49.4573 20.7075 51.0072V64.1259H15.7772V53.8183C15.7772 53.3002 15.3364 52.8813 14.7911 52.8813H4.93036C3.2994 52.8813 1.97214 51.62 1.97214 50.0701V36.9515C1.97214 35.4016 3.2994 34.1403 4.93036 34.1403H10.8468C12.4778 34.1403 13.805 35.4016 13.805 36.9515V41.6367C13.805 42.1549 14.2458 42.5738 14.7911 42.5738H22.6797V46.322ZM45.3593 26.644C45.3593 23.5433 48.0128 21.0217 51.2758 21.0217C54.5387 21.0217 57.1922 23.5433 57.1922 26.644C57.1922 29.7447 54.5387 32.2662 51.2758 32.2662C48.0128 32.2662 45.3593 29.7447 45.3593 26.644ZM57.1922 50.0701C57.1922 51.62 55.8649 52.8813 54.234 52.8813H44.3732C43.8279 52.8813 43.3872 53.3002 43.3872 53.8183V64.1259H38.4568V51.0072C38.4568 49.4573 39.7841 48.1961 41.415 48.1961H47.3315C47.8768 48.1961 48.3175 47.7772 48.3175 47.259V38.8256C48.3175 38.3074 47.8768 37.8885 47.3315 37.8885H38.8651L30.9765 30.3922L33.5265 27.9689L39.7318 33.8658C39.9162 34.042 40.1667 34.1403 40.429 34.1403H54.234C55.8649 34.1403 57.1922 35.4016 57.1922 36.9515V50.0701Z" fill="#7C7C7C"/>
<path d="M38.3368 0.780884H20.006C18.49 0.780884 17.2563 1.9884 17.2563 3.47224V10.6492C17.2563 12.133 18.49 13.3405 20.006 13.3405H20.9225V18.7232C20.9225 19.0857 21.1452 19.414 21.488 19.5522C21.6017 19.5988 21.7208 19.6204 21.8391 19.6204C22.0774 19.6204 22.312 19.5289 22.4871 19.3575L28.6343 13.3405H38.3368C39.8528 13.3405 41.0864 12.133 41.0864 10.6492V3.47224C41.0864 1.9884 39.8528 0.780884 38.3368 0.780884ZM39.2533 10.6492C39.2533 11.1444 38.8427 11.5463 38.3368 11.5463H28.2548C28.011 11.5463 27.7782 11.6405 27.6068 11.8092L22.7556 16.5576V12.4434C22.7556 11.9473 22.3459 11.5463 21.8391 11.5463H20.006C19.5 11.5463 19.0894 11.1444 19.0894 10.6492V3.47224C19.0894 2.97703 19.5 2.57512 20.006 2.57512H38.3368C38.8427 2.57512 39.2533 2.97703 39.2533 3.47224V10.6492Z" fill="#7C7C7C"/>
<path d="M26.4218 4.36936H20.9225V6.16359H26.4218V4.36936Z" fill="#7C7C7C"/>
<path d="M37.4203 7.95783H20.9225V9.75206H37.4203V7.95783Z" fill="#7C7C7C"/>
<path d="M37.4203 4.36936H28.2548V6.16359H37.4203V4.36936Z" fill="#7C7C7C"/>
</svg>
