<svg width="48" height="48" viewBox="0 0 48 48" fill="none" xmlns="http://www.w3.org/2000/svg">
<g clip-path="url(#clip0)">
<path d="M18.5417 7.16488L12.5788 1.2022C11.004 -0.400734 8.19149 -0.400734 6.58856 1.2022L5.63203 2.18676C5.598 2.22079 4.59178 3.21163 4.59178 3.25551C4.08535 3.78988 4.11319 4.66176 4.64775 5.16801L14.5759 15.096C15.0823 15.6591 16.0382 15.6587 16.5449 15.096L18.5417 13.0992C20.1459 11.5503 20.2437 8.80794 18.5417 7.16488Z" fill="#991111"/>
<path d="M46.7554 35.4352L40.7929 29.4727C39.2181 27.8698 36.4337 27.8698 34.8585 29.4727L33.8742 30.4853L32.8617 31.4696C32.2993 32.004 32.2993 32.904 32.8617 33.4383L42.8181 43.3945C43.3041 43.9356 44.2299 43.9791 44.8149 43.3945L45.771 42.4102L46.7553 41.3977C48.4151 39.7666 48.4151 37.0665 46.7554 35.4352Z" fill="#800606"/>
<path d="M45.7709 42.4104L44.8148 43.3946C37.1368 50.3135 28.1647 48.654 23.1024 43.5634L4.45098 24.8552C-1.48366 18.9489 -1.48366 9.30204 4.45098 3.36777C4.47911 3.36777 4.70401 3.14268 4.70401 3.11474L5.63204 2.18652L17.5288 14.0833L16.9664 14.674L16.5448 15.0958C15.6446 16.0802 14.9134 16.6989 14.9134 18.077C14.9134 18.9489 15.2509 19.7365 15.8417 20.3551L20.5384 25.0521L27.6019 32.1728C28.8115 33.3821 30.9209 33.3821 32.1303 32.1728L32.8616 31.4697L33.8741 30.4854L45.7709 42.4104Z" fill="#B32727"/>
<path d="M33.8738 30.4854L45.7706 42.4104L44.8144 43.3947C37.1364 50.3135 28.1644 48.654 23.1021 43.5634L12.6067 33.0114C12.6067 32.9835 12.6067 32.9835 12.6067 32.9835L20.5381 25.0522L27.6017 32.1729C28.8113 33.3823 30.9206 33.3823 32.1301 32.1729L32.8613 31.4698L33.8738 30.4854Z" fill="#991111"/>
</g>
<defs>
<clipPath id="clip0">
<rect width="48" height="48" fill="white"/>
</clipPath>
</defs>
</svg>
