<svg width="30" height="30" viewBox="0 0 30 30" fill="none" xmlns="http://www.w3.org/2000/svg">
<path d="M15 0C6.717 0 0 6.717 0 15C0 23.283 6.717 30 15 30C23.283 30 30 23.283 30 15C30 6.717 23.283 0 15 0ZM15.3179 23.7334C15.3177 23.7334 15.3181 23.7334 15.3179 23.7334H15.3143C13.8116 23.7328 12.3351 23.356 11.0239 22.641L6.26472 23.8891L7.53845 19.2382C6.7527 17.8773 6.33934 16.3332 6.34003 14.7514C6.34209 9.80301 10.3695 5.77721 15.3179 5.77721C17.7193 5.77812 19.9736 6.71288 21.6685 8.40912C23.3636 10.1056 24.2965 12.3605 24.2956 14.7585C24.2935 19.7072 20.2657 23.7334 15.3179 23.7334Z" fill="#068034"/>
<path d="M15.3207 7.29309C11.2047 7.29309 7.8573 10.6391 7.85547 14.7521C7.85501 16.1616 8.2496 17.5342 8.99645 18.7218L9.17383 19.0041L8.41989 21.7568L11.2441 21.0162L11.5167 21.1777C12.6622 21.8575 13.9755 22.2171 15.3145 22.2176H15.3175C19.4303 22.2176 22.7776 18.8713 22.7795 14.7581C22.7802 12.7647 22.0047 10.8907 20.5959 9.48074C19.1872 8.07083 17.3136 7.29378 15.3207 7.29309ZM19.7097 17.9592C19.5227 18.4829 18.6266 18.961 18.1957 19.0256C17.8091 19.0833 17.3202 19.1073 16.7828 18.9368C16.4568 18.8333 16.0391 18.6953 15.5038 18.4644C13.2536 17.493 11.784 15.228 11.6718 15.0783C11.5597 14.9286 10.7559 13.8622 10.7559 12.7583C10.7559 11.6547 11.3354 11.112 11.5409 10.8877C11.7467 10.6631 11.9898 10.6071 12.1392 10.6071C12.2887 10.6071 12.4384 10.6084 12.5691 10.6149C12.7068 10.6217 12.8918 10.5624 13.0737 10.9998C13.2607 11.4489 13.7094 12.5526 13.7654 12.6647C13.8215 12.7771 13.8588 12.908 13.7842 13.0577C13.7094 13.2074 13.4608 13.5303 13.2234 13.8247C13.1239 13.9481 12.9941 14.0579 13.125 14.2825C13.2557 14.5068 13.7061 15.2412 14.3729 15.8359C15.2298 16.5999 15.9526 16.8365 16.1769 16.9489C16.401 17.0611 16.5319 17.0423 16.6628 16.8929C16.7935 16.7432 17.2236 16.238 17.3731 16.0135C17.5225 15.789 17.6722 15.8265 17.8777 15.9013C18.0835 15.976 19.1863 16.5186 19.4106 16.6308C19.6349 16.7432 19.7843 16.7992 19.8404 16.8929C19.8967 16.9865 19.8967 17.4353 19.7097 17.9592Z" fill="#068034"/>
</svg>
