<svg width="20" height="20" viewBox="0 0 20 20" fill="none" xmlns="http://www.w3.org/2000/svg">
<path d="M10 0C4.478 0 0 4.478 0 10C0 15.522 4.478 20 10 20C15.522 20 20 15.522 20 10C20 4.478 15.522 0 10 0ZM10.2119 15.8223C10.2118 15.8223 10.2121 15.8223 10.2119 15.8223H10.2095C9.20776 15.8218 8.22342 15.5707 7.34924 15.094L4.17648 15.9261L5.02563 12.8255C4.5018 11.9182 4.22623 10.8888 4.22668 9.83429C4.22806 6.53534 6.91299 3.85147 10.2119 3.85147C11.8129 3.85208 13.3157 4.47525 14.4456 5.60608C15.5757 6.73706 16.1977 8.24036 16.1971 9.83902C16.1957 13.1381 13.5104 15.8223 10.2119 15.8223Z" fill="white"/>
<path d="M10.2139 4.86206C7.46988 4.86206 5.23828 7.09274 5.23706 9.83475C5.23676 10.7744 5.49982 11.6895 5.99771 12.4812L6.11597 12.6694L5.61334 14.5045L7.49612 14.0108L7.67786 14.1185C8.44156 14.5717 9.31711 14.8114 10.2097 14.8117H10.2117C12.9536 14.8117 15.1852 12.5809 15.1864 9.83871C15.1869 8.50983 14.6699 7.26044 13.7307 6.3205C12.7915 5.38055 11.5425 4.86252 10.2139 4.86206ZM13.1399 11.9728C13.0152 12.3219 12.4178 12.6407 12.1305 12.6837C11.8728 12.7222 11.5469 12.7382 11.1886 12.6245C10.9713 12.5555 10.6928 12.4635 10.3359 12.3096C8.83585 11.662 7.85608 10.152 7.78131 10.0522C7.70654 9.95239 7.17065 9.24149 7.17065 8.50555C7.17065 7.76978 7.55701 7.40799 7.69403 7.25845C7.83121 7.10876 7.99326 7.07138 8.0929 7.07138C8.19254 7.07138 8.29233 7.0723 8.37946 7.07657C8.47131 7.08115 8.5946 7.04163 8.71591 7.33322C8.84058 7.6326 9.13965 8.36838 9.17703 8.44315C9.21442 8.51807 9.23929 8.60535 9.18954 8.70514C9.13965 8.80493 8.97394 9.02023 8.8157 9.21646C8.74933 9.29871 8.66281 9.37195 8.75009 9.52164C8.83722 9.67117 9.13751 10.1608 9.582 10.5573C10.1533 11.0666 10.6352 11.2244 10.7847 11.2993C10.9341 11.3741 11.0214 11.3615 11.1086 11.2619C11.1958 11.1621 11.4825 10.8253 11.5821 10.6757C11.6818 10.526 11.7816 10.551 11.9186 10.6009C12.0558 10.6506 12.7909 11.0124 12.9405 11.0872C13.09 11.1621 13.1896 11.1995 13.227 11.2619C13.2646 11.3243 13.2646 11.6235 13.1399 11.9728Z" fill="white"/>
</svg>
