<svg id="Layer_1" height="512" viewBox="0 0 512 512" width="512" xmlns="http://www.w3.org/2000/svg" data-name="Layer 1"><path d="m269.47 71.76v124.17h-196.16v-124.17a10.356 10.356 0 0 1 10.37-10.35h175.42a10.356 10.356 0 0 1 10.37 10.35z" fill="#556d8d"/><path d="m89.85 77.91h163.08v101.52h-163.08z" fill="#eef5fe"/><path d="m90 78h30v101h-30z" fill="#c9d5e2"/><path d="m17 221h478v32h-478z" fill="#f09b57"/><path d="m451.58 194.21v27.06h-78.42a13.53 13.53 0 1 1 0-27.06z" fill="#5369c6"/><path d="m451.58 167.15v27.06h-78.42a13.53 13.53 0 1 1 0-27.06z" fill="#94ce74"/><path d="m55 196v14.39a10.725 10.725 0 0 0 10.53 10.61h211.72a10.918 10.918 0 0 0 10.75-10.61v-14.39z" fill="#496275"/><g fill="#d88248"><path d="m456 253h29v198h-29z"/><path d="m242 253h28v198h-28z"/><path d="m27 253h28v198h-28z"/></g><path d="m456.27 252.73v47.46h-1.45-184.57-.28v-47.46z" fill="#eb6141"/><path d="m242.03 252.73v47.46h-.75-186.53v-47.46z" fill="#eb6141"/><path d="m108.352 153.728a6 6 0 0 1 -6-6v-26.616a6 6 0 0 1 12 0v26.616a6 6 0 0 1 -6 6z" fill="#f4f8fc"/><path d="m108.352 109.353a6 6 0 0 1 -6-6v-3.2a6 6 0 0 1 12 0v3.2a6 6 0 0 1 -6 6z" fill="#f4f8fc"/><path d="m17 221h30v32h-30z" fill="#bf7340"/><path d="m269.97 253 .28 47h29.75v-47z" fill="#d35339"/><path d="m54.75 253h30v47.45h-30z" fill="#d35339"/></svg>