<svg width="82" height="61" viewBox="0 0 82 61" fill="none" xmlns="http://www.w3.org/2000/svg">
<path d="M40.5079 3.13106H13.7657C13.5046 3.13106 13.2542 3.22541 13.0696 3.39336C12.885 3.5613 12.7813 3.78908 12.7813 4.02659V19.2505C12.7813 19.488 12.885 19.7158 13.0696 19.8837C13.2542 20.0516 13.5046 20.146 13.7657 20.146H40.5079C40.7689 20.146 41.0193 20.0516 41.2039 19.8837C41.3885 19.7158 41.4922 19.488 41.4922 19.2505V4.02659C41.4922 3.78908 41.3885 3.5613 41.2039 3.39336C41.0193 3.22541 40.7689 3.13106 40.5079 3.13106ZM39.5235 18.2057H14.75V4.92211H39.5235V18.2057Z" fill="#7C7C7C"/>
<path d="M16.7188 15.3292C16.9799 15.3292 17.2302 15.2349 17.4148 15.067C17.5995 14.899 17.7032 14.6712 17.7032 14.4337V10.4612C17.7032 10.2237 17.5995 9.9959 17.4148 9.82796C17.2302 9.66002 16.9799 9.56567 16.7188 9.56567C16.4577 9.56567 16.2073 9.66002 16.0227 9.82796C15.8381 9.9959 15.7344 10.2237 15.7344 10.4612V14.4337C15.7344 14.6712 15.8381 14.899 16.0227 15.067C16.2073 15.2349 16.4577 15.3292 16.7188 15.3292Z" fill="#7C7C7C"/>
<path d="M16.7188 8.70617C16.9799 8.70617 17.2302 8.61182 17.4148 8.44387C17.5995 8.27593 17.7032 8.04815 17.7032 7.81064V7.33303C17.7032 7.09553 17.5995 6.86775 17.4148 6.6998C17.2302 6.53186 16.9799 6.43751 16.7188 6.43751C16.4577 6.43751 16.2073 6.53186 16.0227 6.6998C15.8381 6.86775 15.7344 7.09553 15.7344 7.33303V7.81064C15.7344 8.04815 15.8381 8.27593 16.0227 8.44387C16.2073 8.61182 16.4577 8.70617 16.7188 8.70617Z" fill="#7C7C7C"/>
<path d="M80.211 24.4743H74.1406V17.1832C74.126 16.937 74.009 16.7052 73.8133 16.5347C73.6175 16.3642 73.3578 16.268 73.0869 16.2654H60.2219C59.5923 16.267 58.9771 16.4369 58.4527 16.7539C57.9283 17.0709 57.5179 17.521 57.2723 18.0484C57.0267 18.5758 56.9568 19.1572 57.0714 19.7205C57.1859 20.2837 57.4798 20.8039 57.9165 21.2164C57.4619 21.6385 57.1621 22.1783 57.0582 22.7617C56.9544 23.345 57.0516 23.9433 57.3366 24.4743H47.0623C47.1748 24.2069 47.2331 23.9231 47.2344 23.6367V21.6288C47.2344 21.1342 46.7327 20.743 46.1892 20.743H44.1172V3.0945C44.1172 1.74912 42.9894 0.59375 41.5086 0.59375H12.7294C12.0056 0.605925 11.3154 0.873632 10.8046 1.34029C10.2939 1.80695 10.0025 2.436 9.99221 3.0945V20.743H8.0484C7.78584 20.74 7.53257 20.8313 7.3436 20.9972C7.15462 21.163 7.0452 21.39 7.03908 21.6288V23.6367C7.04015 23.9228 7.09692 24.2063 7.20675 24.4743H1.78908C1.66003 24.4739 1.53215 24.4966 1.41278 24.5412C1.2934 24.5858 1.18488 24.6514 1.09343 24.7343C1.00197 24.8171 0.929396 24.9155 0.879852 25.0239C0.830307 25.1323 0.804771 25.2486 0.804707 25.366V30.1055C0.803067 30.3473 0.904876 30.5802 1.08859 30.7548C1.27231 30.9295 1.52353 31.0323 1.78908 31.0415H2.44533V59.6375C2.44533 60.1321 2.85549 60.5938 3.39854 60.5938H7.98244C8.25445 60.5815 8.5113 60.4761 8.70148 60.2987C8.89165 60.1214 9.00109 59.8852 9.00783 59.6375V38.0564H37.7188V59.6375C37.7188 60.1321 38.1645 60.5938 38.7081 60.5938H43.292C43.8355 60.5938 44.2813 60.1321 44.2813 59.6375V38.0564H72.8281V59.6375C72.8356 59.8855 72.9456 60.1217 73.1363 60.299C73.327 60.4764 73.5843 60.5816 73.8567 60.5938H78.6015C79.1451 60.5938 79.5547 60.1321 79.5547 59.6375V31.0415H80.211C80.4765 31.0323 80.7277 30.9295 80.9115 30.7548C81.0952 30.5802 81.197 30.3473 81.1953 30.1055V25.366C81.1953 25.2486 81.1697 25.1323 81.1202 25.0239C81.0706 24.9155 80.9981 24.8171 80.9066 24.7343C80.8152 24.6514 80.7066 24.5858 80.5873 24.5412C80.4679 24.4966 80.34 24.4739 80.211 24.4743ZM60.2219 18.0564H72.1719V20.2952H60.2219C59.8956 20.2952 59.5826 20.1773 59.3518 19.9674C59.1211 19.7574 58.9914 19.4727 58.9914 19.1758C58.9914 18.879 59.1211 18.5942 59.3518 18.3843C59.5826 18.1744 59.8956 18.0564 60.2219 18.0564ZM60.2219 22.0863H72.1719V24.3251H60.2219C59.8956 24.3251 59.5826 24.2072 59.3518 23.9972C59.1211 23.7873 58.9914 23.5026 58.9914 23.2057C58.9914 22.9088 59.1211 22.6241 59.3518 22.4142C59.5826 22.2042 59.8956 22.0863 60.2219 22.0863ZM11.961 3.0945C11.9705 2.91086 12.0542 2.73688 12.196 2.60592C12.3378 2.47495 12.5277 2.39621 12.7294 2.38479H41.5086C41.9045 2.38479 42.1485 2.73659 42.1485 3.0945V20.743H11.961V3.0945ZM7.03908 58.8027H4.41408V31.0415H7.03908V58.8027ZM37.7188 36.2654H9.00783V31.0415H37.7188V36.2654ZM42.3125 58.8027H39.6875V31.0415H42.3125V58.8027ZM72.8281 36.2654H44.2813V31.0415H72.8281V36.2654ZM77.586 58.8027H74.7969V31.0415H77.586V58.8027ZM79.2266 29.2505H2.77346V26.2654H12.6992C12.9821 26.2654 13.2533 26.1632 13.4533 25.9812C13.6533 25.7993 13.7656 25.5525 13.7656 25.2952C13.7656 25.0379 13.6533 24.7912 13.4533 24.6092C13.2533 24.4273 12.9821 24.3251 12.6992 24.3251H9.75071C9.55402 24.3174 9.36788 24.2421 9.22996 24.1143C9.09204 23.9865 9.01264 23.8158 9.00783 23.6367V22.534H45.2656V23.6367C45.2528 23.8189 45.166 23.9902 45.0221 24.1174C44.8781 24.2446 44.6874 24.3187 44.4868 24.3251H19.7539C19.4711 24.3251 19.1999 24.4273 18.9999 24.6092C18.7999 24.7912 18.6875 25.0379 18.6875 25.2952C18.6875 25.5525 18.7999 25.7993 18.9999 25.9812C19.1999 26.1632 19.4711 26.2654 19.7539 26.2654H79.2266V29.2505Z" fill="#7C7C7C"/>
</svg>
